<svg xmlns="http://www.w3.org/2000/svg" role="img" aria-label="Workspace dependencies" viewBox="0 0 1260 540"><rect width="1260" height="540" fill="#fff"/><text x="24" y="49" fill="#173f32" font-family="system-ui,sans-serif" font-size="28" font-weight="700">Workspace dependencies</text><g font-family="system-ui,sans-serif"><g><rect x="24" y="86" width="1212" height="58" rx="14" fill="#f3f8f4"/><rect x="36" y="95" width="320" height="40" rx="10" fill="#174b3d"/><text x="52" y="121" fill="#fff" font-size="17" font-weight="650">app</text><path d="M370 115h35m-10-8 10 8-10 8" stroke="#26916c" stroke-width="2" fill="none"/><text x="420" y="121" fill="#1b4e3d" font-size="15">precedent-node  ·  precedent-iso  ·  source-adapter</text></g><g><rect x="24" y="158" width="1212" height="58" rx="14" fill="#eaf4ef"/><rect x="36" y="167" width="320" height="40" rx="10" fill="#174b3d"/><text x="52" y="193" fill="#fff" font-size="17" font-weight="650">crawler-local</text><path d="M370 187h35m-10-8 10 8-10 8" stroke="#26916c" stroke-width="2" fill="none"/><text x="420" y="193" fill="#1b4e3d" font-size="15">source-adapter  ·  precedent-iso</text></g><g><rect x="24" y="230" width="1212" height="58" rx="14" fill="#f3f8f4"/><rect x="36" y="239" width="320" height="40" rx="10" fill="#174b3d"/><text x="52" y="265" fill="#fff" font-size="17" font-weight="650">precedent-iso</text><path d="M370 259h35m-10-8 10 8-10 8" stroke="#26916c" stroke-width="2" fill="none"/><text x="420" y="265" fill="#1b4e3d" font-size="15">No local imports</text></g><g><rect x="24" y="302" width="1212" height="58" rx="14" fill="#eaf4ef"/><rect x="36" y="311" width="320" height="40" rx="10" fill="#174b3d"/><text x="52" y="337" fill="#fff" font-size="17" font-weight="650">precedent-node</text><path d="M370 331h35m-10-8 10 8-10 8" stroke="#26916c" stroke-width="2" fill="none"/><text x="420" y="337" fill="#1b4e3d" font-size="15">precedent-iso  ·  source-adapter</text></g><g><rect x="24" y="374" width="1212" height="58" rx="14" fill="#f3f8f4"/><rect x="36" y="383" width="320" height="40" rx="10" fill="#174b3d"/><text x="52" y="409" fill="#fff" font-size="17" font-weight="650">site</text><path d="M370 403h35m-10-8 10 8-10 8" stroke="#26916c" stroke-width="2" fill="none"/><text x="420" y="409" fill="#1b4e3d" font-size="15">precedent-iso</text></g><g><rect x="24" y="446" width="1212" height="58" rx="14" fill="#eaf4ef"/><rect x="36" y="455" width="320" height="40" rx="10" fill="#174b3d"/><text x="52" y="481" fill="#fff" font-size="17" font-weight="650">source-adapter</text><path d="M370 475h35m-10-8 10 8-10 8" stroke="#26916c" stroke-width="2" fill="none"/><text x="420" y="481" fill="#1b4e3d" font-size="15">precedent-iso</text></g></g></svg>
